<?xml version="1.0" encoding="UTF-8" standalone="no"?><!DOCTYPE svg PUBLIC "-//W3C//DTD SVG 1.1//EN" "http://www.w3.org/Graphics/SVG/1.1/DTD/svg11.dtd"><svg width="100%" height="100%" viewBox="0 0 323 71" version="1.1" xmlns="http://www.w3.org/2000/svg" xmlns:xlink="http://www.w3.org/1999/xlink" xml:space="preserve" xmlns:serif="http://www.serif.com/" style="fill-rule:evenodd;clip-rule:evenodd;stroke-linejoin:round;stroke-miterlimit:2;"><g><path d="M0.25,37.4l0,-35.6l6.45,0l0,30.3l16.65,0l0,5.3l-23.1,0Z" style="fill:#2e3747;fill-rule:nonzero;"/><path d="M27.8,37.4l0,-25.25l6.2,0l0,25.25l-6.2,0Zm-0.4,-36.7l6.95,0l0,6.15l-6.95,0l0,-6.15Z" style="fill:#2e3747;fill-rule:nonzero;"/><path d="M55.25,11.5c2.2,0 4.142,0.542 5.825,1.625c1.683,1.083 2.992,2.608 3.925,4.575c0.933,1.967 1.4,4.25 1.4,6.85c0,2.6 -0.475,4.908 -1.425,6.925c-0.95,2.017 -2.267,3.575 -3.95,4.675c-1.683,1.1 -3.608,1.65 -5.775,1.65c-1.867,0 -3.525,-0.4 -4.975,-1.2c-1.45,-0.8 -2.542,-1.917 -3.275,-3.35l0,4.15l-6.15,0l0,-36.8l6.2,0l0,15.35c0.767,-1.4 1.867,-2.492 3.3,-3.275c1.433,-0.783 3.067,-1.175 4.9,-1.175Zm-1.65,21.4c2.067,0 3.667,-0.733 4.8,-2.2c1.133,-1.467 1.7,-3.517 1.7,-6.15c0,-2.6 -0.567,-4.608 -1.7,-6.025c-1.133,-1.417 -2.75,-2.125 -4.85,-2.125c-2.1,0 -3.717,0.717 -4.85,2.15c-1.133,1.433 -1.7,3.467 -1.7,6.1c0,2.667 0.567,4.708 1.7,6.125c1.133,1.417 2.767,2.125 4.9,2.125Z" style="fill:#2e3747;fill-rule:nonzero;"/><path d="M85.45,11.55c0.967,0 1.8,0.133 2.5,0.4l-0.05,5.7c-1.067,-0.433 -2.167,-0.65 -3.3,-0.65c-2.133,0 -3.758,0.617 -4.875,1.85c-1.117,1.233 -1.675,2.867 -1.675,4.9l0,13.65l-6.2,0l0,-18.1c0,-2.667 -0.133,-5.05 -0.4,-7.15l5.85,0l0.5,4.45c0.633,-1.633 1.633,-2.883 3,-3.75c1.367,-0.867 2.917,-1.3 4.65,-1.3Z" style="fill:#2e3747;fill-rule:nonzero;"/><path d="M113.55,25.1l-17.4,0c0.133,2.7 0.808,4.692 2.025,5.975c1.217,1.283 3.025,1.925 5.425,1.925c2.767,0 5.333,-0.9 7.7,-2.7l1.8,4.3c-1.2,0.967 -2.675,1.742 -4.425,2.325c-1.75,0.583 -3.525,0.875 -5.325,0.875c-4.133,0 -7.383,-1.167 -9.75,-3.5c-2.367,-2.333 -3.55,-5.533 -3.55,-9.6c0,-2.567 0.517,-4.85 1.55,-6.85c1.033,-2 2.483,-3.558 4.35,-4.675c1.867,-1.117 3.983,-1.675 6.35,-1.675c3.467,0 6.208,1.125 8.225,3.375c2.017,2.25 3.025,5.342 3.025,9.275l0,0.95Zm-11.1,-9.1c-1.667,0 -3.025,0.492 -4.075,1.475c-1.05,0.983 -1.725,2.408 -2.025,4.275l11.75,0c-0.2,-1.9 -0.775,-3.333 -1.725,-4.3c-0.95,-0.967 -2.258,-1.45 -3.925,-1.45Z" style="fill:#2e3747;fill-rule:nonzero;"/><path d="M148.55,1.8l2.9,0l0,35.6l-2.4,0l-22.6,-30.35l0,30.35l-2.9,0l0,-35.6l2.45,0l22.55,30.35l0,-30.35Z" style="fill:#2e3747;fill-rule:nonzero;"/><path d="M170.15,37.75c-2.3,0 -4.325,-0.533 -6.075,-1.6c-1.75,-1.067 -3.1,-2.583 -4.05,-4.55c-0.95,-1.967 -1.425,-4.25 -1.425,-6.85c0,-2.6 0.475,-4.883 1.425,-6.85c0.95,-1.967 2.3,-3.483 4.05,-4.55c1.75,-1.067 3.775,-1.6 6.075,-1.6c2.267,0 4.267,0.533 6,1.6c1.733,1.067 3.075,2.583 4.025,4.55c0.95,1.967 1.425,4.25 1.425,6.85c0,2.6 -0.475,4.883 -1.425,6.85c-0.95,1.967 -2.292,3.483 -4.025,4.55c-1.733,1.067 -3.733,1.6 -6,1.6Zm-0.05,-2.7c2.667,0 4.725,-0.892 6.175,-2.675c1.45,-1.783 2.175,-4.325 2.175,-7.625c0,-3.267 -0.733,-5.808 -2.2,-7.625c-1.467,-1.817 -3.5,-2.725 -6.1,-2.725c-2.633,0 -4.683,0.908 -6.15,2.725c-1.467,1.817 -2.2,4.358 -2.2,7.625c0,3.333 0.717,5.883 2.15,7.65c1.433,1.767 3.483,2.65 6.15,2.65Z" style="fill:#2e3747;fill-rule:nonzero;"/><path d="M192.55,14.8l0,14.9c0,2 0.383,3.383 1.15,4.15c0.767,0.767 1.9,1.15 3.4,1.15c0.933,0 1.833,-0.15 2.7,-0.45l0,2.75c-1.067,0.267 -2.15,0.4 -3.25,0.4c-2.2,0 -3.925,-0.617 -5.175,-1.85c-1.25,-1.233 -1.875,-3.083 -1.875,-5.55l0,-15.5l-4.95,0l0,-2.45l4.95,0l0,-6.65l3.05,-1.15l0,7.8l7.4,0l0,2.45l-7.4,0Z" style="fill:#2e3747;fill-rule:nonzero;"/><path d="M208.35,37.4l0,-35.6l6.45,0l0,30.3l16.65,0l0,5.3l-23.1,0Z" style="fill:#2e3747;fill-rule:nonzero;"/><path d="M235.9,37.4l0,-25.25l6.2,0l0,25.25l-6.2,0Zm-0.4,-36.7l6.95,0l0,6.15l-6.95,0l0,-6.15Z" style="fill:#2e3747;fill-rule:nonzero;"/><path d="M263.35,11.5c2.2,0 4.142,0.542 5.825,1.625c1.683,1.083 2.992,2.608 3.925,4.575c0.933,1.967 1.4,4.25 1.4,6.85c0,2.6 -0.475,4.908 -1.425,6.925c-0.95,2.017 -2.267,3.575 -3.95,4.675c-1.683,1.1 -3.608,1.65 -5.775,1.65c-1.867,0 -3.525,-0.4 -4.975,-1.2c-1.45,-0.8 -2.542,-1.917 -3.275,-3.35l0,4.15l-6.15,0l0,-36.8l6.2,0l0,15.35c0.767,-1.4 1.867,-2.492 3.3,-3.275c1.433,-0.783 3.067,-1.175 4.9,-1.175Zm-1.65,21.4c2.067,0 3.667,-0.733 4.8,-2.2c1.133,-1.467 1.7,-3.517 1.7,-6.15c0,-2.6 -0.567,-4.608 -1.7,-6.025c-1.133,-1.417 -2.75,-2.125 -4.85,-2.125c-2.1,0 -3.717,0.717 -4.85,2.15c-1.133,1.433 -1.7,3.467 -1.7,6.1c0,2.667 0.567,4.708 1.7,6.125c1.133,1.417 2.767,2.125 4.9,2.125Z" style="fill:#2e3747;fill-rule:nonzero;"/><path d="M293.55,11.55c0.967,0 1.8,0.133 2.5,0.4l-0.05,5.7c-1.067,-0.433 -2.167,-0.65 -3.3,-0.65c-2.133,0 -3.758,0.617 -4.875,1.85c-1.117,1.233 -1.675,2.867 -1.675,4.9l0,13.65l-6.2,0l0,-18.1c0,-2.667 -0.133,-5.05 -0.4,-7.15l5.85,0l0.5,4.45c0.633,-1.633 1.633,-2.883 3,-3.75c1.367,-0.867 2.917,-1.3 4.65,-1.3Z" style="fill:#2e3747;fill-rule:nonzero;"/><path d="M323.2,12.15l0,25.25l-6.15,0l0,-4.05c-0.767,1.4 -1.867,2.492 -3.3,3.275c-1.433,0.783 -3.067,1.175 -4.9,1.175c-2.2,0 -4.15,-0.533 -5.85,-1.6c-1.7,-1.067 -3.017,-2.583 -3.95,-4.55c-0.933,-1.967 -1.4,-4.25 -1.4,-6.85c0,-2.6 0.475,-4.908 1.425,-6.925c0.95,-2.017 2.275,-3.583 3.975,-4.7c1.7,-1.117 3.633,-1.675 5.8,-1.675c1.833,0 3.467,0.392 4.9,1.175c1.433,0.783 2.533,1.875 3.3,3.275l0,-3.8l6.15,0Zm-12.65,20.75c2.067,0 3.667,-0.717 4.8,-2.15c1.133,-1.433 1.7,-3.45 1.7,-6.05c0,-2.667 -0.567,-4.717 -1.7,-6.15c-1.133,-1.433 -2.75,-2.15 -4.85,-2.15c-2.067,0 -3.675,0.742 -4.825,2.225c-1.15,1.483 -1.725,3.542 -1.725,6.175c0,2.6 0.575,4.6 1.725,6c1.15,1.4 2.775,2.1 4.875,2.1Z" style="fill:#2e3747;fill-rule:nonzero;"/></g><rect x="0" y="46" width="114" height="5" style="fill:#2e3747;"/><rect x="0" y="56" width="114" height="5" style="fill:#2e3747;"/><rect x="0" y="66" width="114" height="5" style="fill:#2e3747;"/></svg>